<svg aria-hidden="true" style="width:0;height:0;position:absolute;overflow:hidden" xmlns="http://www.w3.org/2000/svg"><defs><symbol id="book-open" viewBox="0 0 32 32"><path fill="none" stroke="#f4f4f4" style="stroke:var(--color1,#f4f4f4)" stroke-linejoin="round" stroke-linecap="round" stroke-width="1.778" d="M2.667 4h8A5.333 5.333 0 0 1 16 9.333V28a4 4 0 0 0-4-4v0H2.667V4zm26.666 0h-8A5.333 5.333 0 0 0 16 9.333V28a4 4 0 0 1 4-4v0h9.333V4z"/></symbol><symbol id="bx_search" viewBox="0 0 32 32"><path d="M13.464 23.726a10.158 10.158 0 0 0 6.303-2.183l-.022.017 5.64 5.64 1.814-1.814-5.64-5.638a10.132 10.132 0 0 0 2.166-6.285c-.007-5.665-4.598-10.255-10.262-10.262h-.001C7.796 3.207 3.205 7.798 3.198 13.463v.001c.006 5.666 4.598 10.258 10.263 10.264h.001zm0-17.96a7.705 7.705 0 0 1 7.696 7.695v.001a7.706 7.706 0 0 1-7.695 7.698h-.001a7.706 7.706 0 0 1-7.698-7.695v-.001a7.706 7.706 0 0 1 7.695-7.698h.001z"/></symbol><symbol id="close" viewBox="0 0 32 32"><path d="m8.48 16 5.84-5.84c.32-.32.32-.84 0-1.2-.32-.32-.84-.32-1.2 0L7.28 14.8 1.44 8.96c-.32-.32-.84-.32-1.2 0-.32.32-.32.84 0 1.2L6.08 16 .24 21.84c-.32.32-.32.84 0 1.2.16.16.4.24.6.24s.44-.08.6-.24l5.84-5.84 5.84 5.84c.16.16.36.24.6.24.2 0 .44-.08.6-.24.32-.32.32-.84 0-1.2L8.48 16z"/></symbol><symbol id="Frame-11" viewBox="0 0 32 32"><path fill="#fff" style="fill:var(--color2,#fff)" d="M4.576 5.333 1.067 8.58 16 22.4 30.933 8.58l-3.509-3.247L16 15.882 4.576 5.333z"/></symbol><symbol id="Frame-12" viewBox="0 0 32 32"><path fill="#4440f6" style="fill:var(--color3,#4440f6)" d="M3.76 25.143 0 21.664 16 6.857l16 14.807-3.76 3.479L16 13.84 3.76 25.143z"/></symbol><symbol id="Frame" viewBox="0 0 32 32"><path fill="#4440f7" style="fill:var(--color4,#4440f7)" d="M22.668 4h5.334c.736 0 1.332.596 1.332 1.332v21.334c0 .736-.596 1.333-1.332 1.334h-24a1.334 1.334 0 0 1-1.334-1.334V5.334C2.668 4.597 3.265 4 4.002 4h5.332V1.334h2.668V4h8V1.334h2.666V4zm4 10.666H5.334v10.668h21.334V14.666zm-6.666-8h-8v2.668H9.334V6.666h-4V12h21.334V6.666h-4v2.668h-2.666V6.666zM8 17.334h2.666V20H8.002v-2.666zm6.666 0h2.666V20h-2.663v-2.666zm6.666 0H24V20h-2.668v-2.666z"/></symbol><symbol id="heart_contur" viewBox="0 0 32 32"><path fill="none" stroke="#4440f7" style="stroke:var(--color4,#4440f7)" stroke-linejoin="round" stroke-linecap="round" stroke-width="2" d="M9.33 4c-3.68 0-6.666 2.954-6.666 6.6 0 2.942 1.166 9.926 12.65 16.986.195.12.43.191.683.191s.488-.071.689-.195l-.006.003c11.484-7.06 12.65-14.044 12.65-16.986 0-3.646-2.984-6.6-6.666-6.6-3.68 0-6.666 4-6.666 4s-2.986-4-6.668-4z"/></symbol><symbol id="heart_fill" viewBox="0 0 32 32"><path fill="#4b48da" style="fill:var(--color5,#4b48da)" d="M9.33 4c-3.68 0-6.666 2.954-6.666 6.6 0 2.942 1.166 9.926 12.65 16.986.195.12.43.191.683.191s.488-.071.689-.195l-.006.003c11.484-7.06 12.65-14.044 12.65-16.986 0-3.646-2.984-6.6-6.666-6.6-3.68 0-6.666 4-6.666 4s-2.986-4-6.668-4z"/></symbol><symbol id="home" viewBox="0 0 32 32"><path fill="none" stroke="#f4f4f4" style="stroke:var(--color1,#f4f4f4)" stroke-linejoin="round" stroke-linecap="round" stroke-width="1.778" d="m4 12 12-9.333L28 12v14.667a2.667 2.667 0 0 1-2.667 2.667v0H6.666a2.667 2.667 0 0 1-2.667-2.667v0V12z"/><path fill="none" stroke="#f4f4f4" style="stroke:var(--color1,#f4f4f4)" stroke-linejoin="round" stroke-linecap="round" stroke-width="1.778" d="M12 29.333V16h8v13.333"/></symbol><symbol id="menu" viewBox="0 0 32 32"><path d="M6.4 11.734V9.6h19.2v2.134H6.4zm0 5.332h19.2v-2.133H6.4v2.133zm0 5.334h19.2v-2.134H6.4V22.4z"/></symbol><symbol id="moon" viewBox="0 0 32 32"><path fill="none" stroke="#5f6775" style="stroke:var(--color6,#5f6775)" stroke-linejoin="round" stroke-linecap="round" stroke-width="2.286" d="M28 17.053c-.584 6.135-5.71 10.896-11.949 10.896-6.627 0-12-5.373-12-12 0-6.239 4.761-11.366 10.848-11.945L14.947 4a9.264 9.264 0 0 0-1.827 5.546 9.333 9.333 0 0 0 14.904 7.489l-.025.018z"/></symbol><symbol id="sun" viewBox="0 0 32 32"><path fill="none" stroke="#4b48db" style="stroke:var(--color7,#4b48db)" stroke-linejoin="round" stroke-linecap="round" stroke-width="2.286" d="M16 1.778v2.586m0 23.272v2.586M5.938 5.943l1.836 1.836m16.447 16.445 1.836 1.836M1.775 16.003h2.586m23.273 0h2.586M5.94 26.057l1.836-1.836M24.222 7.778l1.835-1.836M22.461 16a6.464 6.464 0 1 1-12.928 0v0a6.465 6.465 0 0 1 12.93 0v0z"/></symbol><symbol id="toggle-moon" viewBox="0 0 61 32"><path fill="#4b48db" style="fill:var(--color7,#4b48db)" d="M15.238 1.524h30.476C53.709 1.524 60.19 8.005 60.19 16s-6.481 14.476-14.476 14.476H15.238C7.243 30.476.762 23.995.762 16S7.243 1.524 15.238 1.524z"/><path fill="#fff" style="fill:var(--color2,#fff)" d="M57.905 16c0 6.733-5.458 12.19-12.19 12.19S33.525 22.732 33.525 16c0-6.733 5.458-12.19 12.19-12.19S57.905 9.268 57.905 16z"/><path fill="none" stroke="#fff" style="stroke:var(--color2,#fff)" stroke-width="1.524" d="M15.238 1.524h30.476C53.709 1.524 60.19 8.005 60.19 16s-6.481 14.476-14.476 14.476H15.238C7.243 30.476.762 23.995.762 16S7.243 1.524 15.238 1.524z"/></symbol><symbol id="toggle-sun" viewBox="0 0 61 32"><svg xmlns="http://www.w3.org/2000/svg" fill="none" viewBox="0 0 40 21"><rect width="39.395" height="19.395" x=".302" y=".802" fill="#fff" rx="9.698"/><circle cx="9" cy="10.5" r="8" fill="#4B48DB"/><rect width="39.395" height="19.395" x=".302" y=".802" stroke="#4B48DB" stroke-width=".605" rx="9.698"/></svg></symbol></defs></svg>